<mxfile host="Electron" modified="2023-10-15T18:13:40.828Z" agent="Mozilla/5.0 (X11; Linux x86_64) AppleWebKit/537.36 (KHTML, like Gecko) draw.io/22.0.2 Chrome/114.0.5735.289 Electron/25.8.4 Safari/537.36" etag="MfyFKwDEBqvFLZjXWTjO" version="22.0.2" type="device">
  <diagram name="Page-1" id="hKeQ0QPNWC-VnmTN_f54">
    <mxGraphModel dx="1434" dy="791" grid="1" gridSize="10" guides="1" tooltips="1" connect="1" arrows="1" fold="1" page="1" pageScale="1" pageWidth="730" pageHeight="690" math="0" shadow="0">
      <root>
        <mxCell id="0" />
        <mxCell id="1" parent="0" />
        <mxCell id="QGJTr5kWW-_Mny7xRt1E-1" value="" style="rounded=0;whiteSpace=wrap;html=1;fillColor=#6a00ff;strokeColor=none;gradientDirection=east;fontColor=#ffffff;opacity=20;rotation=-90;gradientColor=#1A1A1A;" parent="1" vertex="1">
          <mxGeometry x="191.75" y="152.75" width="345.5" height="728" as="geometry" />
        </mxCell>
        <mxCell id="qF5WVxnTo-zh03sY3Jjb-56" value="" style="rounded=0;whiteSpace=wrap;html=1;fillColor=#96961B;strokeColor=none;gradientDirection=east;fontColor=#ffffff;opacity=20;rotation=90;gradientColor=#1A1A1A;" parent="1" vertex="1">
          <mxGeometry x="192.5" y="-192" width="345" height="729" as="geometry" />
        </mxCell>
        <mxCell id="qF5WVxnTo-zh03sY3Jjb-23" value="" style="shape=flexArrow;endArrow=classic;html=1;rounded=0;endWidth=5.62358276643991;endSize=4.481333333333334;width=4.4;fillColor=#6d8764;strokeColor=#3A5431;" parent="1" edge="1">
          <mxGeometry width="50" height="50" relative="1" as="geometry">
            <mxPoint x="532" y="26" as="sourcePoint" />
            <mxPoint x="265" y="259" as="targetPoint" />
            <Array as="points">
              <mxPoint x="265" y="25" />
            </Array>
          </mxGeometry>
        </mxCell>
        <mxCell id="qF5WVxnTo-zh03sY3Jjb-26" value="&lt;span style=&quot;border-color: rgb(0, 0, 0); color: rgb(185, 224, 165); font-family: Helvetica; font-size: 13px; font-style: normal; font-variant-ligatures: normal; font-variant-caps: normal; letter-spacing: normal; orphans: 2; text-align: center; text-indent: 0px; text-transform: none; widows: 2; word-spacing: 0px; -webkit-text-stroke-width: 0px; text-decoration-thickness: initial; text-decoration-style: initial; text-decoration-color: initial; font-weight: normal;&quot;&gt;Step&lt;/span&gt;&lt;span style=&quot;font-family: Helvetica; font-style: normal; font-variant-ligatures: normal; font-variant-caps: normal; font-weight: 700; letter-spacing: normal; orphans: 2; text-align: center; text-indent: 0px; text-transform: none; widows: 2; word-spacing: 0px; -webkit-text-stroke-width: 0px; text-decoration-thickness: initial; text-decoration-style: initial; text-decoration-color: initial; float: none; display: inline !important;&quot;&gt;&amp;nbsp;&lt;span style=&quot;font-size: 25px;&quot;&gt;&lt;font color=&quot;#ffffff&quot;&gt;0&lt;/font&gt;&lt;/span&gt;&lt;/span&gt;" style="edgeLabel;html=1;align=center;verticalAlign=middle;resizable=0;points=[];fontFamily=Helvetica;labelBackgroundColor=none;fontSize=13;fontStyle=1;labelBorderColor=none;spacing=0;fontColor=#B9E0A5;" parent="qF5WVxnTo-zh03sY3Jjb-23" vertex="1" connectable="0">
          <mxGeometry x="0.4455" y="-1" relative="1" as="geometry">
            <mxPoint x="34" y="9" as="offset" />
          </mxGeometry>
        </mxCell>
        <mxCell id="qF5WVxnTo-zh03sY3Jjb-24" value="&lt;h2&gt;&lt;b style=&quot;&quot;&gt;&lt;font color=&quot;#009900&quot; face=&quot;Courier New&quot;&gt;START&lt;/font&gt;&lt;/b&gt;&lt;/h2&gt;" style="text;html=1;strokeColor=none;fillColor=none;align=center;verticalAlign=middle;whiteSpace=wrap;rounded=0;" parent="1" vertex="1">
          <mxGeometry x="539" y="12" width="60" height="30" as="geometry" />
        </mxCell>
        <mxCell id="qKZmqnncI4E4cdEYaC28-5" value="&lt;i&gt;&lt;font size=&quot;1&quot; style=&quot;&quot;&gt;&lt;b style=&quot;font-size: 32px;&quot;&gt;Process 1&lt;/b&gt;&lt;/font&gt;&lt;/i&gt;" style="text;html=1;strokeColor=none;fillColor=none;align=center;verticalAlign=middle;whiteSpace=wrap;rounded=0;fontSize=15;fontFamily=Verdana;" parent="1" vertex="1">
          <mxGeometry x="518" y="252" width="160" height="93" as="geometry" />
        </mxCell>
        <mxCell id="ObK-6UawE--s0aJhX0ZN-82" value="" style="group" parent="1" vertex="1" connectable="0">
          <mxGeometry x="289" y="158.00961894323342" width="219" height="141.99038105676658" as="geometry" />
        </mxCell>
        <mxCell id="qF5WVxnTo-zh03sY3Jjb-7" value="" style="shape=flexArrow;endArrow=classic;html=1;rounded=0;endWidth=5.62358276643991;endSize=4.481333333333334;width=4.4;fillColor=#6d8764;strokeColor=#3A5431;" parent="ObK-6UawE--s0aJhX0ZN-82" edge="1">
          <mxGeometry width="50" height="50" relative="1" as="geometry">
            <mxPoint x="29" y="111.99038105676658" as="sourcePoint" />
            <mxPoint x="219" y="1.99038105676658" as="targetPoint" />
          </mxGeometry>
        </mxCell>
        <mxCell id="qF5WVxnTo-zh03sY3Jjb-28" value="&lt;span style=&quot;font-weight: normal;&quot;&gt;Step&lt;/span&gt; &lt;font color=&quot;#ffffff&quot; style=&quot;font-size: 25px;&quot;&gt;1&lt;/font&gt;" style="edgeLabel;html=1;align=center;verticalAlign=middle;resizable=0;points=[];rotation=-30;fontFamily=Helvetica;labelBackgroundColor=none;fontSize=13;fontStyle=1;labelBorderColor=none;spacing=0;fontColor=#B9E0A5;" parent="qF5WVxnTo-zh03sY3Jjb-7" vertex="1" connectable="0">
          <mxGeometry x="0.65" relative="1" as="geometry">
            <mxPoint x="-112" y="42" as="offset" />
          </mxGeometry>
        </mxCell>
        <mxCell id="ObK-6UawE--s0aJhX0ZN-3" value="Current Gene Pool" style="text;html=1;strokeColor=none;fillColor=none;align=center;verticalAlign=middle;whiteSpace=wrap;rounded=0;rotation=-30;fontColor=#CC99FF;fontFamily=Courier New;" parent="ObK-6UawE--s0aJhX0ZN-82" vertex="1">
          <mxGeometry x="101" y="11.990381056766582" width="76" height="30" as="geometry" />
        </mxCell>
        <mxCell id="J80-3c8fZ5XdG-Qg9mDs-8" value="" style="shape=flexArrow;endArrow=classic;html=1;rounded=0;endWidth=5.62358276643991;endSize=4.481333333333334;width=4.4;fillColor=#6d8764;strokeColor=#3A5431;" parent="ObK-6UawE--s0aJhX0ZN-82" edge="1">
          <mxGeometry width="50" height="50" relative="1" as="geometry">
            <mxPoint x="229" y="31.99038105676658" as="sourcePoint" />
            <mxPoint x="39" y="141.99038105676658" as="targetPoint" />
          </mxGeometry>
        </mxCell>
        <mxCell id="J80-3c8fZ5XdG-Qg9mDs-9" value="&lt;span style=&quot;font-weight: normal;&quot;&gt;Step&lt;/span&gt; &lt;font color=&quot;#ffffff&quot; style=&quot;font-size: 25px;&quot;&gt;2&lt;/font&gt;" style="edgeLabel;html=1;align=center;verticalAlign=middle;resizable=0;points=[];rotation=-30;fontFamily=Helvetica;labelBackgroundColor=none;fontSize=13;fontStyle=1;labelBorderColor=none;spacing=0;fontColor=#B9E0A5;" parent="J80-3c8fZ5XdG-Qg9mDs-8" vertex="1" connectable="0">
          <mxGeometry x="0.65" relative="1" as="geometry">
            <mxPoint x="117" y="-52" as="offset" />
          </mxGeometry>
        </mxCell>
        <mxCell id="J80-3c8fZ5XdG-Qg9mDs-15" value="&lt;font color=&quot;#ffd966&quot;&gt;New Gene&lt;/font&gt;" style="text;html=1;strokeColor=none;fillColor=none;align=center;verticalAlign=middle;whiteSpace=wrap;rounded=0;rotation=-30;fontColor=#CC99FF;fontFamily=Courier New;" parent="ObK-6UawE--s0aJhX0ZN-82" vertex="1">
          <mxGeometry x="78.5" y="94.12" width="76" height="28.01" as="geometry" />
        </mxCell>
        <mxCell id="js07GGTwBLIUN8_5Y25O-1" value="&lt;font style=&quot;font-size: 7px;&quot;&gt;+ Updated Pool&lt;br style=&quot;font-size: 7px;&quot;&gt;&lt;/font&gt;" style="text;html=1;strokeColor=none;fillColor=none;align=center;verticalAlign=middle;whiteSpace=wrap;rounded=0;rotation=-30;fontColor=#CC99FF;fontFamily=Courier New;fontSize=7;" parent="ObK-6UawE--s0aJhX0ZN-82" vertex="1">
          <mxGeometry x="106" y="101.99038105676658" width="76" height="30" as="geometry" />
        </mxCell>
        <mxCell id="J80-3c8fZ5XdG-Qg9mDs-16" value="" style="group;rotation=60;" parent="1" vertex="1" connectable="0">
          <mxGeometry x="295" y="375.99961894323343" width="219" height="141.99038105676658" as="geometry" />
        </mxCell>
        <mxCell id="J80-3c8fZ5XdG-Qg9mDs-17" value="" style="shape=flexArrow;endArrow=classic;html=1;rounded=0;endWidth=5.62358276643991;endSize=4.481333333333334;width=4.4;fillColor=#6d8764;strokeColor=#3A5431;" parent="J80-3c8fZ5XdG-Qg9mDs-16" edge="1">
          <mxGeometry width="50" height="50" relative="1" as="geometry">
            <mxPoint x="34" y="21" as="sourcePoint" />
            <mxPoint x="224" y="131" as="targetPoint" />
          </mxGeometry>
        </mxCell>
        <mxCell id="J80-3c8fZ5XdG-Qg9mDs-18" value="&lt;span style=&quot;font-weight: normal;&quot;&gt;Step&lt;/span&gt; &lt;font color=&quot;#ffffff&quot; style=&quot;font-size: 25px;&quot;&gt;4&lt;/font&gt;" style="edgeLabel;html=1;align=center;verticalAlign=middle;resizable=0;points=[];rotation=30;fontFamily=Helvetica;labelBackgroundColor=none;fontSize=13;fontStyle=1;labelBorderColor=none;spacing=0;fontColor=#B9E0A5;" parent="J80-3c8fZ5XdG-Qg9mDs-17" vertex="1" connectable="0">
          <mxGeometry x="0.65" relative="1" as="geometry">
            <mxPoint x="-37" y="34" as="offset" />
          </mxGeometry>
        </mxCell>
        <mxCell id="J80-3c8fZ5XdG-Qg9mDs-19" value="&lt;font color=&quot;#ffe599&quot;&gt;New Gene&lt;/font&gt;" style="text;html=1;strokeColor=none;fillColor=none;align=center;verticalAlign=middle;whiteSpace=wrap;rounded=0;rotation=30;fontColor=#CC99FF;fontFamily=Courier New;" parent="J80-3c8fZ5XdG-Qg9mDs-16" vertex="1">
          <mxGeometry x="124" y="64" width="76" height="30" as="geometry" />
        </mxCell>
        <mxCell id="J80-3c8fZ5XdG-Qg9mDs-20" value="" style="shape=flexArrow;endArrow=classic;html=1;rounded=0;endWidth=5.62358276643991;endSize=4.481333333333334;width=4.4;fillColor=#6d8764;strokeColor=#3A5431;" parent="J80-3c8fZ5XdG-Qg9mDs-16" edge="1">
          <mxGeometry width="50" height="50" relative="1" as="geometry">
            <mxPoint x="203" y="155" as="sourcePoint" />
            <mxPoint x="13" y="45" as="targetPoint" />
          </mxGeometry>
        </mxCell>
        <mxCell id="J80-3c8fZ5XdG-Qg9mDs-21" value="&lt;span style=&quot;font-weight: normal;&quot;&gt;Step&lt;/span&gt; &lt;font color=&quot;#ffffff&quot; style=&quot;font-size: 25px;&quot;&gt;3&lt;/font&gt;" style="edgeLabel;html=1;align=center;verticalAlign=middle;resizable=0;points=[];rotation=30;fontFamily=Helvetica;labelBackgroundColor=none;fontSize=13;fontStyle=1;labelBorderColor=none;spacing=0;fontColor=#B9E0A5;" parent="J80-3c8fZ5XdG-Qg9mDs-20" vertex="1" connectable="0">
          <mxGeometry x="0.65" relative="1" as="geometry">
            <mxPoint x="41" y="-34" as="offset" />
          </mxGeometry>
        </mxCell>
        <mxCell id="J80-3c8fZ5XdG-Qg9mDs-22" value="&lt;font color=&quot;#ff6666&quot;&gt;New Gene&#39;s Fitness&lt;/font&gt;" style="text;html=1;strokeColor=none;fillColor=none;align=center;verticalAlign=middle;whiteSpace=wrap;rounded=0;rotation=30;fontColor=#CC99FF;fontFamily=Courier New;" parent="J80-3c8fZ5XdG-Qg9mDs-16" vertex="1">
          <mxGeometry x="31" y="89" width="76" height="28.01" as="geometry" />
        </mxCell>
        <mxCell id="qF5WVxnTo-zh03sY3Jjb-3" value="Model" style="ellipse;whiteSpace=wrap;html=1;aspect=fixed;fontSize=20;fillColor=#647687;strokeColor=#314354;fontFamily=Courier New;fontColor=#E6E6E6;strokeWidth=2;fontStyle=1;container=1;" parent="1" vertex="1">
          <mxGeometry x="519" y="485" width="120" height="120" as="geometry" />
        </mxCell>
        <mxCell id="qF5WVxnTo-zh03sY3Jjb-2" value="&lt;font style=&quot;font-size: 19px;&quot;&gt;Genetic Algorithm&lt;/font&gt;" style="ellipse;whiteSpace=wrap;html=1;aspect=fixed;fontSize=20;fillColor=#647687;strokeColor=#314354;fontFamily=Courier New;fontColor=#E6E6E6;strokeWidth=2;fontStyle=1" parent="1" vertex="1">
          <mxGeometry x="518" y="78" width="120" height="120" as="geometry" />
        </mxCell>
        <mxCell id="QGJTr5kWW-_Mny7xRt1E-5" value="" style="endArrow=none;dashed=1;html=1;dashPattern=1 3;strokeWidth=2;rounded=0;entryX=1;entryY=1;entryDx=0;entryDy=0;exitX=1;exitY=0;exitDx=0;exitDy=0;" parent="1" source="QGJTr5kWW-_Mny7xRt1E-1" target="QGJTr5kWW-_Mny7xRt1E-1" edge="1">
          <mxGeometry width="50" height="50" relative="1" as="geometry">
            <mxPoint y="345" as="sourcePoint" />
            <mxPoint x="451" y="285" as="targetPoint" />
          </mxGeometry>
        </mxCell>
        <mxCell id="QGJTr5kWW-_Mny7xRt1E-7" value="" style="group;fontFamily=Courier New;fontSize=14;" parent="1" vertex="1" connectable="0">
          <mxGeometry x="206" y="265" width="119.5" height="59" as="geometry" />
        </mxCell>
        <mxCell id="QGJTr5kWW-_Mny7xRt1E-4" value="" style="verticalLabelPosition=bottom;verticalAlign=top;html=1;shape=mxgraph.basic.half_circle;rotation=-180;strokeColor=#314354;fillColor=#647687;strokeWidth=2;" parent="QGJTr5kWW-_Mny7xRt1E-7" vertex="1">
          <mxGeometry width="119.5" height="59" as="geometry" />
        </mxCell>
        <mxCell id="QGJTr5kWW-_Mny7xRt1E-10" value="" style="group" parent="1" vertex="1" connectable="0">
          <mxGeometry x="206" y="365" width="119.5" height="59" as="geometry" />
        </mxCell>
        <mxCell id="QGJTr5kWW-_Mny7xRt1E-3" value="" style="verticalLabelPosition=bottom;verticalAlign=top;html=1;shape=mxgraph.basic.half_circle;strokeColor=#314354;fillColor=#647687;strokeWidth=2;" parent="QGJTr5kWW-_Mny7xRt1E-10" vertex="1">
          <mxGeometry width="119.5" height="59" as="geometry" />
        </mxCell>
        <mxCell id="QGJTr5kWW-_Mny7xRt1E-9" value="Run &lt;br style=&quot;font-size: 15px;&quot;&gt;Model" style="text;html=1;strokeColor=none;fillColor=none;align=center;verticalAlign=middle;whiteSpace=wrap;rounded=0;fontSize=15;fontFamily=Courier New;" parent="1" vertex="1">
          <mxGeometry x="146" y="379.5" width="60" height="30" as="geometry" />
        </mxCell>
        <mxCell id="QGJTr5kWW-_Mny7xRt1E-6" value="Server Callback" style="text;html=1;strokeColor=none;fillColor=none;align=center;verticalAlign=middle;whiteSpace=wrap;rounded=0;fontFamily=Courier New;fontSize=14;" parent="1" vertex="1">
          <mxGeometry x="141" y="279.5" width="60" height="30" as="geometry" />
        </mxCell>
        <mxCell id="QGJTr5kWW-_Mny7xRt1E-15" value="" style="shape=flexArrow;endArrow=classic;html=1;rounded=1;endWidth=4.890738813735691;endSize=2.590322580645161;width=4.67741935483871;fillColor=#f0a30a;strokeColor=#BD7000;" parent="1" edge="1">
          <mxGeometry width="50" height="50" relative="1" as="geometry">
            <mxPoint x="317" y="303" as="sourcePoint" />
            <mxPoint x="316" y="389" as="targetPoint" />
            <Array as="points">
              <mxPoint x="292" y="315" />
              <mxPoint x="292" y="375" />
            </Array>
          </mxGeometry>
        </mxCell>
        <mxCell id="QGJTr5kWW-_Mny7xRt1E-16" value="" style="shape=flexArrow;endArrow=classic;html=1;rounded=1;endWidth=4.890738813735691;endSize=2.590322580645161;width=4.67741935483871;fillColor=#f0a30a;strokeColor=#BD7000;" parent="1" edge="1">
          <mxGeometry width="50" height="50" relative="1" as="geometry">
            <mxPoint x="294" y="410" as="sourcePoint" />
            <mxPoint x="298" y="279.1923076923077" as="targetPoint" />
            <Array as="points">
              <mxPoint x="241" y="383" />
              <mxPoint x="241" y="305" />
            </Array>
          </mxGeometry>
        </mxCell>
        <mxCell id="QGJTr5kWW-_Mny7xRt1E-20" value="" style="shape=flexArrow;endArrow=classic;html=1;rounded=1;endWidth=4.890738813735691;endSize=2.590322580645161;width=4.67741935483871;fillColor=#f0a30a;strokeColor=#BD7000;" parent="1" edge="1">
          <mxGeometry width="50" height="50" relative="1" as="geometry">
            <mxPoint x="264" y="271" as="sourcePoint" />
            <mxPoint x="298" y="279.0023076923077" as="targetPoint" />
            <Array as="points">
              <mxPoint x="272" y="291" />
            </Array>
          </mxGeometry>
        </mxCell>
        <mxCell id="QGJTr5kWW-_Mny7xRt1E-23" value="&lt;i&gt;&lt;font size=&quot;1&quot; style=&quot;&quot;&gt;&lt;b style=&quot;font-size: 32px;&quot;&gt;Process 2&lt;/b&gt;&lt;/font&gt;&lt;/i&gt;" style="text;html=1;strokeColor=none;fillColor=none;align=center;verticalAlign=middle;whiteSpace=wrap;rounded=0;fontSize=15;fontFamily=Verdana;" parent="1" vertex="1">
          <mxGeometry x="518" y="348" width="160" height="93" as="geometry" />
        </mxCell>
        <mxCell id="QGJTr5kWW-_Mny7xRt1E-25" value="&lt;h1&gt;Server&lt;/h1&gt;&lt;p&gt;Server is split in two parts which run on separate process&#39;s. When one half is done running, it will invoke the other half.&lt;/p&gt;" style="text;html=1;spacing=5;spacingTop=-12;whiteSpace=wrap;overflow=hidden;rounded=1;labelBorderColor=none;fillColor=#15182E;fontColor=#ffffff;strokeColor=#003366;strokeWidth=2;perimeterSpacing=0;spacingLeft=15;spacingBottom=15;spacingRight=15;" parent="1" vertex="1">
          <mxGeometry x="60" y="104" width="176" height="148" as="geometry" />
        </mxCell>
      </root>
    </mxGraphModel>
  </diagram>
</mxfile>
